<svg width="204" height="50" viewBox="0 0 204 50" fill="none" xmlns="http://www.w3.org/2000/svg">
<path d="M0 46H7.98921M15.9784 46H7.98921M7.98921 46V15.8254C7.98921 14.8921 9.15437 14.4676 9.75478 15.182L33.8878 43.8991C34.4882 44.6135 35.6533 44.1889 35.6533 43.2557V34.7293C35.6533 34.4939 35.5703 34.2661 35.4189 34.0859L10.4353 4.35664C10.2453 4.13055 9.96504 4 9.66971 4H0" stroke="white" stroke-width="5"/>
<path d="M29.5989 4H35.7995M42 4H35.7995M35.7995 4V26.1351" stroke="white" stroke-width="5"/>
<line x1="55.5" y1="50" x2="55.5" stroke="white" stroke-width="3"/>
<path d="M72.608 23V22.216L74.368 22.056H74.784L76.688 22.216V23H72.608ZM74.064 23V12.648H74.832L74.976 17.848V23H74.064ZM79.488 13.064V12.28H83.536V13.064L81.84 13.224H81.44L79.488 13.064ZM81.376 23.112L74.832 13.912H74.624L74.256 13.144L72.656 13.064V12.28H75.472L81.408 20.68L81.28 20.728L81.184 17.368V12.28H82.096V23.112H81.376ZM85.3931 23V22.216L87.5211 22.056H87.9691L90.0971 22.216V23H85.3931ZM86.9131 23C86.9345 22.456 86.9451 21.912 86.9451 21.368C86.9451 20.8133 86.9451 20.2587 86.9451 19.704C86.9451 19.1387 86.9451 18.5787 86.9451 18.024V17.256C86.9451 16.7013 86.9451 16.1467 86.9451 15.592C86.9451 15.0373 86.9451 14.4827 86.9451 13.928C86.9451 13.3733 86.9345 12.824 86.9131 12.28H88.5771C88.5665 12.824 88.5558 13.3733 88.5451 13.928C88.5451 14.472 88.5451 15.0213 88.5451 15.576C88.5451 16.1307 88.5451 16.6907 88.5451 17.256V18.024C88.5451 18.5787 88.5451 19.1333 88.5451 19.688C88.5451 20.2427 88.5451 20.7973 88.5451 21.352C88.5558 21.896 88.5665 22.4453 88.5771 23H86.9131ZM85.3931 13.064V12.28H90.0971V13.064L87.9691 13.224H87.5211L85.3931 13.064ZM97.4669 23.24C96.6455 23.24 95.8935 23.1067 95.2109 22.84C94.5389 22.5733 93.9522 22.1947 93.4509 21.704C92.9602 21.2133 92.5762 20.6267 92.2989 19.944C92.0322 19.2613 91.8989 18.4987 91.8989 17.656C91.8989 16.824 92.0375 16.0667 92.3149 15.384C92.5922 14.6907 92.9815 14.0933 93.4829 13.592C93.9949 13.0907 94.5922 12.7067 95.2749 12.44C95.9682 12.1733 96.7255 12.04 97.5469 12.04C98.0162 12.04 98.4482 12.072 98.8429 12.136C99.2482 12.1893 99.6162 12.2747 99.9469 12.392C100.288 12.4987 100.592 12.6267 100.859 12.776L100.923 15.128H99.9309L99.4829 12.776L100.539 13V13.944C100.134 13.6027 99.6855 13.3467 99.1949 13.176C98.7149 12.9947 98.1975 12.904 97.6429 12.904C96.8962 12.904 96.2189 13.0907 95.6109 13.464C95.0135 13.8267 94.5389 14.36 94.1869 15.064C93.8349 15.7573 93.6589 16.616 93.6589 17.64C93.6589 18.6533 93.8242 19.512 94.1549 20.216C94.4962 20.9093 94.9709 21.4427 95.5789 21.816C96.1869 22.1787 96.9015 22.36 97.7229 22.36C98.2242 22.36 98.6615 22.3067 99.0349 22.2C99.4189 22.0933 99.8135 21.9387 100.219 21.736L99.5469 22.504V21.592C99.5469 20.984 99.5415 20.3707 99.5309 19.752C99.5309 19.1333 99.5255 18.5147 99.5149 17.896H101.147C101.136 18.504 101.126 19.1173 101.115 19.736C101.115 20.3547 101.115 20.9733 101.115 21.592V22.344C100.582 22.6107 100.016 22.8293 99.4189 23C98.8215 23.16 98.1709 23.24 97.4669 23.24ZM97.8189 18.648V17.896H102.171V18.648L100.427 18.76H99.9949L97.8189 18.648ZM103.837 23V22.216L105.965 22.056H106.157V23H103.837ZM105.373 23C105.384 22.456 105.389 21.912 105.389 21.368C105.4 20.8133 105.405 20.2587 105.405 19.704C105.405 19.1387 105.405 18.5787 105.405 18.024V17.256C105.405 16.7013 105.405 16.1467 105.405 15.592C105.405 15.0373 105.4 14.4827 105.389 13.928C105.389 13.3733 105.384 12.824 105.373 12.28H107.021C107.011 12.824 107 13.3733 106.989 13.928C106.989 14.472 106.989 15.0213 106.989 15.576C106.989 16.1307 106.989 16.6907 106.989 17.256V17.896C106.989 18.4933 106.989 19.08 106.989 19.656C106.989 20.2213 106.989 20.7813 106.989 21.336C107 21.8907 107.011 22.4453 107.021 23H105.373ZM106.157 23V22.12H111.757L111.133 22.664L111.629 20.072H112.573L112.461 23H106.157ZM106.205 17.944V17.128H109.949V17.944H106.205ZM109.629 19.416L109.341 17.672V17.32L109.629 15.64H110.429V19.416H109.629ZM103.837 13.064V12.28H106.157V13.224H105.965L103.837 13.064ZM111.309 15.144L110.813 12.616L111.437 13.16H106.157V12.28H112.141L112.253 15.144H111.309ZM114.653 23V22.216L116.781 22.056H116.973V23H114.653ZM116.189 23C116.2 22.4453 116.205 21.896 116.205 21.352C116.216 20.7973 116.221 20.2427 116.221 19.688C116.221 19.1333 116.221 18.584 116.221 18.04V17.256C116.221 16.6907 116.221 16.1307 116.221 15.576C116.221 15.0213 116.216 14.472 116.205 13.928C116.205 13.3733 116.2 12.824 116.189 12.28H117.837C117.826 12.824 117.816 13.3733 117.805 13.928C117.805 14.4827 117.805 15.0373 117.805 15.592C117.805 16.1467 117.805 16.7013 117.805 17.256V18.248C117.805 18.728 117.805 19.2347 117.805 19.768C117.805 20.2907 117.805 20.824 117.805 21.368C117.816 21.912 117.826 22.456 117.837 23H116.189ZM116.973 23V22.12H122.189L121.549 22.648L122.141 19.88H123.133L122.973 23H116.973ZM114.653 13.064V12.28H119.453V13.064L117.245 13.224H116.781L114.653 13.064ZM134.968 23.24C134.285 23.24 133.64 23.1173 133.032 22.872C132.424 22.6267 131.88 22.2693 131.4 21.8C130.93 21.32 130.562 20.7333 130.296 20.04C130.029 19.3467 129.896 18.552 129.896 17.656C129.896 16.792 130.029 16.0133 130.296 15.32C130.573 14.6267 130.946 14.04 131.416 13.56C131.885 13.0693 132.424 12.696 133.032 12.44C133.64 12.1733 134.285 12.04 134.968 12.04C135.65 12.04 136.29 12.1627 136.888 12.408C137.496 12.6533 138.034 13.016 138.504 13.496C138.973 13.9653 139.341 14.5467 139.608 15.24C139.885 15.9227 140.024 16.712 140.024 17.608C140.024 18.472 139.89 19.256 139.624 19.96C139.357 20.6533 138.989 21.2453 138.52 21.736C138.05 22.2267 137.512 22.6 136.904 22.856C136.296 23.112 135.65 23.24 134.968 23.24ZM134.968 22.376C135.533 22.376 136.024 22.248 136.44 21.992C136.856 21.7253 137.197 21.3733 137.464 20.936C137.73 20.488 137.928 19.9813 138.056 19.416C138.184 18.8507 138.248 18.2587 138.248 17.64C138.248 17.0213 138.184 16.4293 138.056 15.864C137.928 15.2987 137.73 14.7973 137.464 14.36C137.197 13.912 136.856 13.56 136.44 13.304C136.024 13.0373 135.533 12.904 134.968 12.904C134.402 12.904 133.912 13.0373 133.496 13.304C133.08 13.56 132.733 13.912 132.456 14.36C132.189 14.7973 131.986 15.2987 131.848 15.864C131.72 16.4293 131.656 17.0213 131.656 17.64C131.656 18.2587 131.72 18.8507 131.848 19.416C131.986 19.9813 132.189 20.488 132.456 20.936C132.733 21.3733 133.08 21.7253 133.496 21.992C133.912 22.248 134.402 22.376 134.968 22.376ZM141.848 23V22.216L143.608 22.056H144.024L145.72 22.216V23H141.848ZM141.944 13.064V12.28H143.992V13.224H143.768L141.944 13.064ZM143.352 23V12.28H144.056L144.28 17.144V23H143.352ZM147.832 23L143.88 13.192H143.592V12.28H145.064L148.776 21.544H148.456L149.016 20.072L152.024 12.28H152.84V13.192H152.504L151.944 14.792L148.744 23H147.832ZM150.776 23V22.216L152.728 22.056H153.368L155.384 22.216V23H150.776ZM152.248 23C152.259 22.424 152.264 21.848 152.264 21.272C152.275 20.696 152.28 20.12 152.28 19.544C152.28 18.9573 152.28 18.3707 152.28 17.784V12.28H153.864C153.854 12.824 153.843 13.3733 153.832 13.928C153.832 14.472 153.832 15.0213 153.832 15.576C153.832 16.1307 153.832 16.6907 153.832 17.256V18.024C153.832 18.5787 153.832 19.1333 153.832 19.688C153.832 20.2427 153.832 20.7973 153.832 21.352C153.843 21.896 153.854 22.4453 153.864 23H152.248ZM153.16 13.224V12.28H155.384V13.064L153.368 13.224H153.16ZM162.271 23.24C161.588 23.24 160.943 23.1173 160.335 22.872C159.727 22.6267 159.183 22.2693 158.703 21.8C158.234 21.32 157.866 20.7333 157.599 20.04C157.332 19.3467 157.199 18.552 157.199 17.656C157.199 16.792 157.332 16.0133 157.599 15.32C157.876 14.6267 158.25 14.04 158.719 13.56C159.188 13.0693 159.727 12.696 160.335 12.44C160.943 12.1733 161.588 12.04 162.271 12.04C162.954 12.04 163.594 12.1627 164.191 12.408C164.799 12.6533 165.338 13.016 165.807 13.496C166.276 13.9653 166.644 14.5467 166.911 15.24C167.188 15.9227 167.327 16.712 167.327 17.608C167.327 18.472 167.194 19.256 166.927 19.96C166.66 20.6533 166.292 21.2453 165.823 21.736C165.354 22.2267 164.815 22.6 164.207 22.856C163.599 23.112 162.954 23.24 162.271 23.24ZM162.271 22.376C162.836 22.376 163.327 22.248 163.743 21.992C164.159 21.7253 164.5 21.3733 164.767 20.936C165.034 20.488 165.231 19.9813 165.359 19.416C165.487 18.8507 165.551 18.2587 165.551 17.64C165.551 17.0213 165.487 16.4293 165.359 15.864C165.231 15.2987 165.034 14.7973 164.767 14.36C164.5 13.912 164.159 13.56 163.743 13.304C163.327 13.0373 162.836 12.904 162.271 12.904C161.706 12.904 161.215 13.0373 160.799 13.304C160.383 13.56 160.036 13.912 159.759 14.36C159.492 14.7973 159.29 15.2987 159.151 15.864C159.023 16.4293 158.959 17.0213 158.959 17.64C158.959 18.2587 159.023 18.8507 159.151 19.416C159.29 19.9813 159.492 20.488 159.759 20.936C160.036 21.3733 160.383 21.7253 160.799 21.992C161.215 22.248 161.706 22.376 162.271 22.376ZM169.167 23V22.216L170.927 22.056H171.343L173.247 22.216V23H169.167ZM170.623 23V12.648H171.391L171.535 17.848V23H170.623ZM176.047 13.064V12.28H180.095V13.064L178.399 13.224H177.999L176.047 13.064ZM177.935 23.112L171.391 13.912H171.183L170.815 13.144L169.215 13.064V12.28H172.031L177.967 20.68L177.839 20.728L177.743 17.368V12.28H178.655V23.112H177.935ZM181.953 23V22.216L183.985 22.056H184.177V23H181.953ZM183.473 23C183.494 22.456 183.505 21.9067 183.505 21.352C183.505 20.7973 183.505 20.232 183.505 19.656C183.505 19.08 183.505 18.4933 183.505 17.896V17.256C183.505 16.7013 183.505 16.1467 183.505 15.592C183.505 15.0373 183.505 14.4827 183.505 13.928C183.505 13.3733 183.494 12.824 183.473 12.28H185.137C185.126 12.824 185.115 13.3733 185.105 13.928C185.105 14.472 185.105 15.0213 185.105 15.576C185.105 16.1307 185.105 16.6907 185.105 17.256V17.896C185.105 18.4933 185.105 19.08 185.105 19.656C185.105 20.2213 185.105 20.7813 185.105 21.336C185.115 21.8907 185.126 22.4453 185.137 23H183.473ZM184.417 23V22.168H186.449C187.313 22.168 188.043 21.9867 188.641 21.624C189.238 21.2613 189.691 20.7387 190.001 20.056C190.31 19.3733 190.465 18.5573 190.465 17.608C190.465 16.1573 190.123 15.0427 189.441 14.264C188.769 13.4853 187.835 13.096 186.641 13.096H184.417V12.28H186.849C187.915 12.28 188.849 12.4827 189.649 12.888C190.459 13.2933 191.089 13.8907 191.537 14.68C191.995 15.4587 192.225 16.4293 192.225 17.592C192.225 18.744 191.985 19.7253 191.505 20.536C191.025 21.336 190.358 21.9493 189.505 22.376C188.651 22.792 187.67 23 186.561 23H184.417ZM181.953 13.064V12.28H184.177V13.224H183.985L181.953 13.064ZM193.924 23V22.216L196.052 22.056H196.5L198.628 22.216V23H193.924ZM195.444 23C195.466 22.456 195.476 21.912 195.476 21.368C195.476 20.8133 195.476 20.2587 195.476 19.704C195.476 19.1387 195.476 18.5787 195.476 18.024V17.256C195.476 16.7013 195.476 16.1467 195.476 15.592C195.476 15.0373 195.476 14.4827 195.476 13.928C195.476 13.3733 195.466 12.824 195.444 12.28H197.108C197.098 12.824 197.087 13.3733 197.076 13.928C197.076 14.472 197.076 15.0213 197.076 15.576C197.076 16.1307 197.076 16.6907 197.076 17.256V18.024C197.076 18.5787 197.076 19.1333 197.076 19.688C197.076 20.2427 197.076 20.7973 197.076 21.352C197.087 21.896 197.098 22.4453 197.108 23H195.444ZM193.924 13.064V12.28H198.628V13.064L196.5 13.224H196.052L193.924 13.064ZM74.794 40.176C74.2587 40.176 73.7857 40.11 73.375 39.978C72.9643 39.846 72.6527 39.7177 72.44 39.593L72.462 37.921H73.155L73.496 39.571L72.781 39.494V38.834C72.979 38.9733 73.177 39.0943 73.375 39.197C73.5803 39.2997 73.7967 39.3803 74.024 39.439C74.2513 39.4977 74.5043 39.527 74.783 39.527C75.179 39.527 75.5017 39.472 75.751 39.362C76.0077 39.2447 76.1947 39.087 76.312 38.889C76.4367 38.691 76.499 38.471 76.499 38.229C76.499 38.0017 76.4513 37.811 76.356 37.657C76.268 37.4957 76.1213 37.3563 75.916 37.239C75.718 37.1143 75.4577 36.9897 75.135 36.865L74.728 36.7C74.332 36.546 73.969 36.3773 73.639 36.194C73.309 36.0033 73.0487 35.7687 72.858 35.49C72.6673 35.2113 72.572 34.863 72.572 34.445C72.572 34.027 72.6857 33.6713 72.913 33.378C73.1403 33.0773 73.4483 32.85 73.837 32.696C74.2257 32.5347 74.673 32.454 75.179 32.454C75.6337 32.454 76.037 32.5127 76.389 32.63C76.741 32.7473 77.005 32.8683 77.181 32.993L77.159 34.555H76.466L76.125 32.938L76.829 33.026V33.697C76.5797 33.5137 76.323 33.3707 76.059 33.268C75.795 33.158 75.4943 33.103 75.157 33.103C74.8343 33.103 74.563 33.1543 74.343 33.257C74.123 33.3597 73.9543 33.499 73.837 33.675C73.7197 33.8437 73.661 34.0417 73.661 34.269C73.661 34.489 73.7087 34.676 73.804 34.83C73.8993 34.984 74.046 35.1233 74.244 35.248C74.442 35.3653 74.695 35.4827 75.003 35.6L75.41 35.754C75.8353 35.9227 76.213 36.1023 76.543 36.293C76.873 36.4837 77.1297 36.7183 77.313 36.997C77.4963 37.2757 77.588 37.6277 77.588 38.053C77.588 38.4857 77.4743 38.8597 77.247 39.175C77.0197 39.4903 76.6933 39.736 76.268 39.912C75.85 40.088 75.3587 40.176 74.794 40.176ZM82.8523 40.176C82.3316 40.176 81.8513 40.088 81.4113 39.912C80.9713 39.736 80.5863 39.483 80.2563 39.153C79.9336 38.8157 79.6806 38.4123 79.4973 37.943C79.3213 37.4663 79.2333 36.931 79.2333 36.337C79.2333 35.7503 79.3213 35.2187 79.4973 34.742C79.6806 34.2653 79.9336 33.8583 80.2563 33.521C80.5863 33.1763 80.9713 32.9123 81.4113 32.729C81.8513 32.5457 82.3316 32.454 82.8523 32.454C83.3656 32.454 83.8423 32.542 84.2823 32.718C84.7223 32.8867 85.1036 33.1397 85.4263 33.477C85.7563 33.807 86.0093 34.2067 86.1853 34.676C86.3686 35.1453 86.4603 35.677 86.4603 36.271C86.4603 36.8577 86.3686 37.393 86.1853 37.877C86.0093 38.3537 85.7563 38.7643 85.4263 39.109C85.1036 39.4537 84.7223 39.7177 84.2823 39.901C83.8423 40.0843 83.3656 40.176 82.8523 40.176ZM82.8523 39.505C83.2556 39.505 83.6039 39.4243 83.8973 39.263C84.1979 39.0943 84.4473 38.8633 84.6453 38.57C84.8433 38.2767 84.9899 37.9357 85.0853 37.547C85.1879 37.1583 85.2393 36.744 85.2393 36.304C85.2393 35.864 85.1879 35.4533 85.0853 35.072C84.9899 34.6833 84.8433 34.346 84.6453 34.06C84.4473 33.7667 84.1979 33.5393 83.8973 33.378C83.6039 33.2093 83.2556 33.125 82.8523 33.125C82.4489 33.125 82.0969 33.2093 81.7963 33.378C81.5029 33.5393 81.2536 33.7667 81.0483 34.06C80.8503 34.346 80.6999 34.6833 80.5973 35.072C80.5019 35.4533 80.4543 35.864 80.4543 36.304C80.4543 36.744 80.5019 37.1583 80.5973 37.547C80.6999 37.9357 80.8503 38.2767 81.0483 38.57C81.2536 38.8633 81.5029 39.0943 81.7963 39.263C82.0969 39.4243 82.4489 39.505 82.8523 39.505ZM87.6762 40V39.362L89.1612 39.318H89.5792L91.1962 39.362V40H87.6762ZM88.7872 40C88.7872 39.6187 88.7872 39.241 88.7872 38.867C88.7945 38.4857 88.7982 38.1043 88.7982 37.723C88.7982 37.3343 88.7982 36.953 88.7982 36.579V36.04C88.7982 35.6587 88.7982 35.281 88.7982 34.907C88.7982 34.5257 88.7945 34.148 88.7872 33.774C88.7872 33.3927 88.7872 33.0113 88.7872 32.63H89.9532C89.9532 33.004 89.9495 33.3817 89.9422 33.763C89.9422 34.1443 89.9422 34.5257 89.9422 34.907C89.9422 35.281 89.9422 35.6587 89.9422 36.04V36.535C89.9422 36.931 89.9422 37.3233 89.9422 37.712C89.9422 38.0933 89.9422 38.4747 89.9422 38.856C89.9495 39.2373 89.9532 39.6187 89.9532 40H88.7872ZM89.3812 36.579V35.963H92.1092V36.579H89.3812ZM91.8342 37.591L91.5922 36.436V36.117L91.8342 34.973H92.4502V37.591H91.8342ZM87.6762 33.268V32.63H89.3152V33.312H89.1612L87.6762 33.268ZM93.0662 34.621L92.6592 32.883L93.1542 33.29H89.3152V32.63H93.6712L93.7482 34.621H93.0662ZM96.6468 40V39.362L98.2528 39.318H98.6708L100.277 39.362V40H96.6468ZM97.8788 40C97.8861 39.6187 97.8898 39.241 97.8898 38.867C97.8898 38.4857 97.8898 38.1043 97.8898 37.723C97.8898 37.3343 97.8898 36.953 97.8898 36.579V36.04C97.8898 35.6587 97.8898 35.281 97.8898 34.907C97.8898 34.5257 97.8898 34.148 97.8898 33.774C97.8898 33.3927 97.8861 33.0113 97.8788 32.63H99.0448C99.0448 33.004 99.0411 33.3817 99.0338 33.763C99.0338 34.1443 99.0338 34.5257 99.0338 34.907C99.0338 35.281 99.0338 35.6587 99.0338 36.04V36.568C99.0338 36.9493 99.0338 37.3343 99.0338 37.723C99.0338 38.1043 99.0338 38.4857 99.0338 38.867C99.0411 39.241 99.0448 39.6187 99.0448 40H97.8788ZM95.1288 34.687L95.2168 32.63H101.707L101.795 34.687H101.113L100.695 32.828L101.212 33.29H95.7118L96.2288 32.828L95.8218 34.687H95.1288ZM105.551 40.022L103.428 32.63H104.616L106.343 39.12H106.387L106.827 36.59L107.993 32.63H108.884L110.655 39.131H110.699L111.161 36.623L112.272 32.63H113.02L110.853 40.022H109.874L108.268 33.741H108.257L107.817 35.765L106.563 40.022H105.551ZM102.713 33.268V32.63H105.837V33.268L104.583 33.312H103.89L102.713 33.268ZM106.904 33.268V32.63H110.094V33.268L108.84 33.312H108.18L106.904 33.268ZM111.106 33.268V32.63H113.735V33.268L112.602 33.312H112.25L111.106 33.268ZM113.469 40V39.362L114.602 39.318H114.855L116.186 39.362V40H113.469ZM114.151 40L116.78 32.586H117.814L120.476 40H119.244L117 33.521H116.901L116.549 35.072L114.877 40H114.151ZM115.427 37.69V37.063H118.793V37.69H115.427ZM117.869 40V39.362L119.376 39.318H119.717L121.191 39.362V40H117.869ZM122.22 40V39.362L123.705 39.318H124.123L125.608 39.362V40H122.22ZM123.331 40C123.331 39.6187 123.331 39.241 123.331 38.867C123.338 38.4857 123.342 38.1043 123.342 37.723C123.342 37.3343 123.342 36.9493 123.342 36.568V36.04C123.342 35.6587 123.342 35.281 123.342 34.907C123.342 34.5257 123.338 34.148 123.331 33.774C123.331 33.3927 123.331 33.0113 123.331 32.63H124.497C124.497 33.0187 124.493 33.4073 124.486 33.796C124.486 34.1847 124.486 34.5733 124.486 34.962C124.486 35.3507 124.486 35.7467 124.486 36.15V36.546C124.486 36.9347 124.486 37.3233 124.486 37.712C124.486 38.0933 124.486 38.4747 124.486 38.856C124.493 39.2373 124.497 39.6187 124.497 40H123.331ZM128.501 40.088C128.112 40.088 127.812 40.022 127.599 39.89C127.394 39.7507 127.24 39.505 127.137 39.153L126.752 37.756C126.671 37.4627 126.572 37.2353 126.455 37.074C126.345 36.9127 126.202 36.799 126.026 36.733C125.85 36.667 125.626 36.634 125.355 36.634H123.969V36.051H125.498C125.901 36.051 126.235 35.9887 126.499 35.864C126.763 35.7393 126.957 35.5633 127.082 35.336C127.214 35.1087 127.28 34.852 127.28 34.566C127.28 34.126 127.137 33.7997 126.851 33.587C126.572 33.3743 126.129 33.268 125.52 33.268H124.09V32.63H125.663C126.565 32.63 127.258 32.7987 127.742 33.136C128.233 33.4733 128.479 33.939 128.479 34.533C128.479 34.8997 128.373 35.2077 128.16 35.457C127.947 35.7063 127.661 35.9007 127.302 36.04C126.943 36.1793 126.547 36.26 126.114 36.282V36.425C126.363 36.425 126.583 36.4507 126.774 36.502C126.972 36.546 127.141 36.6193 127.28 36.722C127.419 36.8173 127.54 36.9493 127.643 37.118C127.746 37.2867 127.834 37.492 127.907 37.734L128.501 39.648L128.083 39.296L129.425 39.395V40C129.344 40.0147 129.253 40.0293 129.15 40.044C129.047 40.0587 128.941 40.0697 128.831 40.077C128.728 40.0843 128.618 40.088 128.501 40.088ZM122.22 33.268V32.63H123.727V33.312H123.573L122.22 33.268ZM130.602 40V39.362L132.087 39.318H132.241V40H130.602ZM131.713 40C131.713 39.6187 131.713 39.241 131.713 38.867C131.72 38.4857 131.724 38.1043 131.724 37.723C131.724 37.3343 131.724 36.953 131.724 36.579V36.04C131.724 35.6587 131.724 35.281 131.724 34.907C131.724 34.5257 131.72 34.148 131.713 33.774C131.713 33.3927 131.713 33.0113 131.713 32.63H132.879C132.879 33.004 132.875 33.3817 132.868 33.763C132.868 34.1443 132.868 34.5257 132.868 34.907C132.868 35.281 132.868 35.6587 132.868 36.04V36.535C132.868 36.931 132.868 37.3233 132.868 37.712C132.868 38.0933 132.868 38.4747 132.868 38.856C132.875 39.2373 132.879 39.6187 132.879 40H131.713ZM132.241 40V39.329H136.3L135.805 39.747L136.212 37.921H136.894L136.817 40H132.241ZM132.307 36.546V35.93H135.013V36.546H132.307ZM134.738 37.536L134.496 36.37V36.084L134.738 34.94H135.354V37.536H134.738ZM130.602 33.268V32.63H132.241V33.312H132.087L130.602 33.268ZM135.992 34.621L135.585 32.883L136.08 33.29H132.241V32.63H136.597L136.674 34.621H135.992ZM141.531 40V39.362L143.016 39.318H143.17V40H141.531ZM142.642 40C142.642 39.6187 142.642 39.241 142.642 38.867C142.649 38.4857 142.653 38.1043 142.653 37.723C142.653 37.3343 142.653 36.953 142.653 36.579V36.04C142.653 35.6587 142.653 35.281 142.653 34.907C142.653 34.5257 142.649 34.148 142.642 33.774C142.642 33.3927 142.642 33.0113 142.642 32.63H143.808C143.808 33.004 143.804 33.3817 143.797 33.763C143.797 34.1443 143.797 34.5257 143.797 34.907C143.797 35.281 143.797 35.6587 143.797 36.04V36.535C143.797 36.931 143.797 37.3233 143.797 37.712C143.797 38.0933 143.797 38.4747 143.797 38.856C143.804 39.2373 143.808 39.6187 143.808 40H142.642ZM143.17 40V39.329H147.229L146.734 39.747L147.141 37.921H147.823L147.746 40H143.17ZM143.236 36.546V35.93H145.942V36.546H143.236ZM145.667 37.536L145.425 36.37V36.084L145.667 34.94H146.283V37.536H145.667ZM141.531 33.268V32.63H143.17V33.312H143.016L141.531 33.268ZM146.921 34.621L146.514 32.883L147.009 33.29H143.17V32.63H147.526L147.603 34.621H146.921ZM149.278 40V39.362L150.554 39.318H150.906L152.248 39.362V40H149.278ZM150.367 40V32.872H150.84L151.071 36.645V40H150.367ZM154.217 33.268V32.63H157.154V33.268L155.922 33.312H155.57L154.217 33.268ZM155.471 40.088L150.961 33.785H150.664L150.576 33.29L149.289 33.268V32.63H151.379L155.493 38.438L155.537 38.449L155.394 35.897V32.63H156.098V40.088H155.471ZM162.234 40.176C161.662 40.176 161.134 40.088 160.65 39.912C160.166 39.736 159.745 39.4867 159.385 39.164C159.033 38.834 158.758 38.4307 158.56 37.954C158.37 37.4773 158.274 36.9383 158.274 36.337C158.274 35.7357 158.377 35.1967 158.582 34.72C158.788 34.2433 159.074 33.8363 159.44 33.499C159.807 33.1543 160.236 32.894 160.727 32.718C161.219 32.542 161.747 32.454 162.311 32.454C162.663 32.454 162.986 32.4797 163.279 32.531C163.58 32.575 163.848 32.6337 164.082 32.707C164.317 32.7803 164.515 32.861 164.676 32.949L164.72 34.588H164.027L163.686 33.004L164.456 33.059V33.741C164.2 33.5577 163.888 33.411 163.521 33.301C163.162 33.1837 162.766 33.125 162.333 33.125C161.813 33.125 161.336 33.246 160.903 33.488C160.478 33.73 160.137 34.0893 159.88 34.566C159.624 35.0353 159.495 35.6147 159.495 36.304C159.495 37.0007 159.613 37.5873 159.847 38.064C160.089 38.5333 160.427 38.8927 160.859 39.142C161.299 39.384 161.809 39.505 162.388 39.505C162.762 39.505 163.085 39.4683 163.356 39.395C163.628 39.3143 163.884 39.2153 164.126 39.098L163.719 39.626V39.032C163.719 38.6213 163.719 38.2033 163.719 37.778C163.719 37.3453 163.716 36.9127 163.708 36.48H164.863C164.863 36.9127 164.86 37.3417 164.852 37.767C164.852 38.1923 164.852 38.614 164.852 39.032V39.582C164.508 39.7433 164.115 39.8827 163.675 40C163.243 40.1173 162.762 40.176 162.234 40.176ZM162.52 37.085V36.48H165.622V37.085L164.456 37.118H164.104L162.52 37.085ZM166.845 40V39.362L168.33 39.318H168.748L170.233 39.362V40H166.845ZM167.956 40C167.956 39.6187 167.956 39.241 167.956 38.867C167.964 38.4857 167.967 38.1043 167.967 37.723C167.967 37.3343 167.967 36.953 167.967 36.579V36.04C167.967 35.6587 167.967 35.281 167.967 34.907C167.967 34.5257 167.964 34.148 167.956 33.774C167.956 33.3927 167.956 33.0113 167.956 32.63H169.122C169.122 33.004 169.119 33.3817 169.111 33.763C169.111 34.1443 169.111 34.5257 169.111 34.907C169.111 35.281 169.111 35.6587 169.111 36.04V36.568C169.111 36.9493 169.111 37.3343 169.111 37.723C169.111 38.1043 169.111 38.4857 169.111 38.867C169.119 39.241 169.122 39.6187 169.122 40H167.956ZM166.845 33.268V32.63H170.233V33.268L168.748 33.312H168.33L166.845 33.268ZM171.575 40V39.362L172.851 39.318H173.203L174.545 39.362V40H171.575ZM172.664 40V32.872H173.137L173.368 36.645V40H172.664ZM176.514 33.268V32.63H179.451V33.268L178.219 33.312H177.867L176.514 33.268ZM177.768 40.088L173.258 33.785H172.961L172.873 33.29L171.586 33.268V32.63H173.676L177.79 38.438L177.834 38.449L177.691 35.897V32.63H178.395V40.088H177.768ZM180.654 40V39.362L182.139 39.318H182.293V40H180.654ZM181.765 40C181.765 39.6187 181.765 39.241 181.765 38.867C181.772 38.4857 181.776 38.1043 181.776 37.723C181.776 37.3343 181.776 36.953 181.776 36.579V36.04C181.776 35.6587 181.776 35.281 181.776 34.907C181.776 34.5257 181.772 34.148 181.765 33.774C181.765 33.3927 181.765 33.0113 181.765 32.63H182.931C182.931 33.004 182.927 33.3817 182.92 33.763C182.92 34.1443 182.92 34.5257 182.92 34.907C182.92 35.281 182.92 35.6587 182.92 36.04V36.535C182.92 36.931 182.92 37.3233 182.92 37.712C182.92 38.0933 182.92 38.4747 182.92 38.856C182.927 39.2373 182.931 39.6187 182.931 40H181.765ZM182.293 40V39.329H186.352L185.857 39.747L186.264 37.921H186.946L186.869 40H182.293ZM182.359 36.546V35.93H185.065V36.546H182.359ZM184.79 37.536L184.548 36.37V36.084L184.79 34.94H185.406V37.536H184.79ZM180.654 33.268V32.63H182.293V33.312H182.139L180.654 33.268ZM186.044 34.621L185.637 32.883L186.132 33.29H182.293V32.63H186.649L186.726 34.621H186.044ZM188.412 40V39.362L189.897 39.318H190.051V40H188.412ZM189.523 40C189.523 39.6187 189.523 39.241 189.523 38.867C189.53 38.4857 189.534 38.1043 189.534 37.723C189.534 37.3343 189.534 36.953 189.534 36.579V36.04C189.534 35.6587 189.534 35.281 189.534 34.907C189.534 34.5257 189.53 34.148 189.523 33.774C189.523 33.3927 189.523 33.0113 189.523 32.63H190.689C190.689 33.004 190.685 33.3817 190.678 33.763C190.678 34.1443 190.678 34.5257 190.678 34.907C190.678 35.281 190.678 35.6587 190.678 36.04V36.535C190.678 36.931 190.678 37.3233 190.678 37.712C190.678 38.0933 190.678 38.4747 190.678 38.856C190.685 39.2373 190.689 39.6187 190.689 40H189.523ZM190.051 40V39.329H194.11L193.615 39.747L194.022 37.921H194.704L194.627 40H190.051ZM190.117 36.546V35.93H192.823V36.546H190.117ZM192.548 37.536L192.306 36.37V36.084L192.548 34.94H193.164V37.536H192.548ZM188.412 33.268V32.63H190.051V33.312H189.897L188.412 33.268ZM193.802 34.621L193.395 32.883L193.89 33.29H190.051V32.63H194.407L194.484 34.621H193.802ZM196.137 40V39.362L197.622 39.318H198.04L199.525 39.362V40H196.137ZM197.248 40C197.248 39.6187 197.248 39.241 197.248 38.867C197.255 38.4857 197.259 38.1043 197.259 37.723C197.259 37.3343 197.259 36.9493 197.259 36.568V36.04C197.259 35.6587 197.259 35.281 197.259 34.907C197.259 34.5257 197.255 34.148 197.248 33.774C197.248 33.3927 197.248 33.0113 197.248 32.63H198.414C198.414 33.0187 198.41 33.4073 198.403 33.796C198.403 34.1847 198.403 34.5733 198.403 34.962C198.403 35.3507 198.403 35.7467 198.403 36.15V36.546C198.403 36.9347 198.403 37.3233 198.403 37.712C198.403 38.0933 198.403 38.4747 198.403 38.856C198.41 39.2373 198.414 39.6187 198.414 40H197.248ZM202.418 40.088C202.029 40.088 201.729 40.022 201.516 39.89C201.311 39.7507 201.157 39.505 201.054 39.153L200.669 37.756C200.588 37.4627 200.489 37.2353 200.372 37.074C200.262 36.9127 200.119 36.799 199.943 36.733C199.767 36.667 199.543 36.634 199.272 36.634H197.886V36.051H199.415C199.818 36.051 200.152 35.9887 200.416 35.864C200.68 35.7393 200.874 35.5633 200.999 35.336C201.131 35.1087 201.197 34.852 201.197 34.566C201.197 34.126 201.054 33.7997 200.768 33.587C200.489 33.3743 200.046 33.268 199.437 33.268H198.007V32.63H199.58C200.482 32.63 201.175 32.7987 201.659 33.136C202.15 33.4733 202.396 33.939 202.396 34.533C202.396 34.8997 202.29 35.2077 202.077 35.457C201.864 35.7063 201.578 35.9007 201.219 36.04C200.86 36.1793 200.464 36.26 200.031 36.282V36.425C200.28 36.425 200.5 36.4507 200.691 36.502C200.889 36.546 201.058 36.6193 201.197 36.722C201.336 36.8173 201.457 36.9493 201.56 37.118C201.663 37.2867 201.751 37.492 201.824 37.734L202.418 39.648L202 39.296L203.342 39.395V40C203.261 40.0147 203.17 40.0293 203.067 40.044C202.964 40.0587 202.858 40.0697 202.748 40.077C202.645 40.0843 202.535 40.088 202.418 40.088ZM196.137 33.268V32.63H197.644V33.312H197.49L196.137 33.268Z" fill="white"/>
</svg>
